<svg xmlns="http://www.w3.org/2000/svg" xmlns:xlink="http://www.w3.org/1999/xlink" width="838" height="592.681" viewBox="0 0 838 592.681"><defs><style>.a,.c,.j{fill:#736598;}.a,.f,.r{opacity:0.1;}.b{fill:none;stroke:#535461;stroke-miterlimit:10;stroke-width:2px;}.d{opacity:0.25;}.e{fill:#c8cad7;}.g{fill:#474157;}.h{fill:#ededf4;}.i{fill:#fff;}.j{opacity:0.2;}.k{fill:#d4dfec;}.l{fill:url(#a);}.m{fill:#a1616a;}.n{fill:#ffcbb4;}.o{fill:#605d82;}.p{fill:#5a5773;}.q{fill:#4a4347;}</style><linearGradient id="a" x1="0.5" y1="1" x2="0.5" gradientUnits="objectBoundingBox"><stop offset="0" stop-color="gray" stop-opacity="0.251"/><stop offset="0.54" stop-color="gray" stop-opacity="0.122"/><stop offset="1" stop-color="gray" stop-opacity="0.102"/></linearGradient></defs><path class="a" d="M879.921,196.976A171.579,171.579,0,0,0,846.676,152.2l-461.167-3.841,379.7-45.081a250.205,250.205,0,0,0-77.037-12.919C651.615,65.4,604.635,50.4,553.391,50.4c-45.979,0-88.494,12.081-123.156,32.578a247.1,247.1,0,0,0-98.713-20.112c-102.466,0-187.846,59.995-207,139.56Z" transform="translate(-58.133 -50.4)"/><path class="a" d="M873,316.056a146.094,146.094,0,0,0-14.372-62.976L59.369,324.028a155.505,155.505,0,0,0-18.725,39.979L288.15,395.2,35,417.944c7.616,90.066,98.951,161.193,210.523,161.193,56.161,0,107.19-18.028,145-47.417,37.932,29.946,89.429,48.344,146.22,48.344,84.223,0,156.921-40.543,190.775-99.166,67.915-18.221,120.672-63.985,138.73-121.221l-313-41.025H873Z" transform="translate(-35 -102.774)"/><path class="b" d="M299.063,542.251s-34.276-49.457-28.455-96.133A91.171,91.171,0,0,0,259.632,389.5,153.3,153.3,0,0,0,243.51,366.56" transform="translate(-88.88 -132.098)"/><path class="c" d="M239.517,323.807c2.225,6.711-3.493,30.212-3.493,30.212s-18.607-15.447-20.831-22.166a12.81,12.81,0,1,1,24.324-8.046Z" transform="translate(-81.395 -118.779)"/><path class="c" d="M283.185,362.471c-1.78,6.845-19.348,23.464-19.348,23.464s-7.223-23.078-5.436-29.923a12.807,12.807,0,1,1,24.785,6.46Z" transform="translate(-92.655 -126.896)"/><path class="c" d="M309.161,446.556c-5,5.013-28.551,10.486-28.551,10.486s5.421-23.568,10.382-28.574a12.808,12.808,0,1,1,18.139,18.087Z" transform="translate(-98.467 -147.123)"/><path class="c" d="M315.811,516.964c-4.079,5.777-26.371,15.158-26.371,15.158s1.357-24.146,5.436-29.923a12.809,12.809,0,1,1,20.935,14.765Z" transform="translate(-100.749 -165.745)"/><path class="c" d="M229.613,404.436c6.363,3.085,30.405.5,30.405.5s-12.874-20.468-19.281-23.56a12.807,12.807,0,0,0-11.124,23.056Z" transform="translate(-83.52 -135.646)"/><path class="c" d="M236.1,485.5c7,1.038,29.174-8.617,29.174-8.617s-18.414-15.685-25.4-16.723a12.809,12.809,0,1,0-3.767,25.34Z" transform="translate(-84.145 -156.249)"/><path class="c" d="M255.408,563.86c6.726,2.225,30.212-3.56,30.212-3.56s-15.5-18.54-22.248-20.765a12.809,12.809,0,1,0-7.994,24.339Z" transform="translate(-89.669 -176.63)"/><path class="d" d="M239.517,323.807c2.225,6.711-3.493,30.212-3.493,30.212s-18.607-15.447-20.831-22.166a12.81,12.81,0,1,1,24.324-8.046Z" transform="translate(-81.395 -118.779)"/><path class="d" d="M283.185,362.471c-1.78,6.845-19.348,23.464-19.348,23.464s-7.223-23.078-5.436-29.923a12.807,12.807,0,1,1,24.785,6.46Z" transform="translate(-92.655 -126.896)"/><path class="d" d="M309.161,446.556c-5,5.013-28.551,10.486-28.551,10.486s5.421-23.568,10.382-28.574a12.808,12.808,0,1,1,18.139,18.087Z" transform="translate(-98.467 -147.123)"/><path class="d" d="M315.811,516.964c-4.079,5.777-26.371,15.158-26.371,15.158s1.357-24.146,5.436-29.923a12.809,12.809,0,1,1,20.935,14.765Z" transform="translate(-100.749 -165.745)"/><path class="d" d="M229.613,404.436c6.363,3.085,30.405.5,30.405.5s-12.874-20.468-19.281-23.56a12.807,12.807,0,0,0-11.124,23.056Z" transform="translate(-83.52 -135.646)"/><path class="d" d="M236.1,485.5c7,1.038,29.174-8.617,29.174-8.617s-18.414-15.685-25.4-16.723a12.809,12.809,0,1,0-3.767,25.34Z" transform="translate(-84.145 -156.249)"/><path class="d" d="M255.408,563.86c6.726,2.225,30.212-3.56,30.212-3.56s-15.5-18.54-22.248-20.765a12.809,12.809,0,1,0-7.994,24.339Z" transform="translate(-89.669 -176.63)"/><path class="b" d="M275.655,552.659s-51.378-31.325-64.978-76.384a91.216,91.216,0,0,0-32.971-47.306A153.282,153.282,0,0,0,153.67,414.53" transform="translate(-65.665 -144.494)"/><path class="c" d="M134.122,374.906c4.754,5.236,9.047,29.033,9.047,29.033s-23.264-6.585-28.017-11.821a12.807,12.807,0,0,1,18.97-17.212Z" transform="translate(-54.853 -133.169)"/><path class="c" d="M189.672,392.567c1.142,6.986-8.158,29.3-8.158,29.3s-15.974-18.176-17.123-25.162a12.809,12.809,0,1,1,25.281-4.138Z" transform="translate(-68.392 -136.043)"/><path class="c" d="M249.69,457.934c-2.544,6.608-21.855,21.158-21.855,21.158s-4.6-23.731-2.062-30.346a12.81,12.81,0,0,1,23.916,9.188Z" transform="translate(-84.1 -151.211)"/><path class="c" d="M283.192,520.092c-1.387,6.941-17.969,24.547-17.969,24.547s-8.543-22.626-7.156-29.56a12.81,12.81,0,0,1,25.125,5.013Z" transform="translate(-92.603 -167.813)"/><path class="c" d="M157.57,452.619c7.075.245,28.01-11.865,28.01-11.865s-20.06-13.5-27.135-13.757a12.807,12.807,0,0,0-.875,25.6Z" transform="translate(-63.476 -147.713)"/><path class="c" d="M196.525,524.151c6.823-1.884,23.182-19.7,23.182-19.7s-23.19-6.9-29.983-4.991a12.807,12.807,0,1,0,6.823,24.688Z" transform="translate(-72.553 -166.354)"/><path class="c" d="M245.932,587.927c7.045-.742,26.178-15.5,26.178-15.5s-21.692-10.694-28.729-9.989a12.808,12.808,0,0,0,2.551,25.489Z" transform="translate(-85.867 -182.706)"/><ellipse class="a" cx="132.745" cy="7.876" rx="132.745" ry="7.876" transform="translate(286.781 536.513)"/><ellipse class="a" cx="34.751" cy="6.326" rx="34.751" ry="6.326" transform="translate(519.122 573.044)"/><path class="e" d="M634,736.37v4.754H493.38v-3.871a46.223,46.223,0,0,0,3.181-85.372H633.074A46.253,46.253,0,0,0,634,736.37Z" transform="translate(-153.449 -205.827)"/><path class="f" d="M634.182,651.89a46.3,46.3,0,0,0-25.555,30.65h-85.4a46.3,46.3,0,0,0-25.555-30.65Z" transform="translate(-154.557 -205.829)"/><path class="e" d="M276.21,619.22v26.7c0,14.743,10.79,26.7,24.1,26.7H714.121c13.312,0,24.1-11.954,24.1-26.7v-26.7Z" transform="translate(-97.33 -197.387)"/><path class="f" d="M634,764.107v4.754H493.38V764.99a46.125,46.125,0,0,0,10.842-5.77H625.4a46.329,46.329,0,0,0,8.6,4.887Z" transform="translate(-153.449 -233.564)"/><rect class="e" width="233.602" height="14.09" rx="7.045" transform="translate(293.456 527.139)"/><path class="g" d="M738.222,216.322a24.1,24.1,0,0,0-24.1-24.1H300.312a24.1,24.1,0,0,0-24.1,24.1v297.75H738.222Z" transform="translate(-97.33 -87.047)"/><rect class="h" width="436.798" height="279.581" rx="16" transform="translate(191.487 128.162)"/><ellipse class="i" cx="5.562" cy="5.562" rx="5.562" ry="5.562" transform="translate(404.324 111.105)"/><ellipse class="i" cx="13.719" cy="13.719" rx="13.719" ry="13.719" transform="translate(396.166 435.923)"/><path class="e" d="M730.008,235.085H293.21a11.865,11.865,0,0,1,11.865-11.865H718.143A11.865,11.865,0,0,1,730.008,235.085Z" transform="translate(-101.723 -95.058)"/><ellipse class="h" cx="2.966" cy="2.966" rx="2.966" ry="2.966" transform="translate(200.386 131.129)"/><ellipse class="h" cx="2.966" cy="2.966" rx="2.966" ry="2.966" transform="translate(209.285 131.129)"/><ellipse class="h" cx="2.966" cy="2.966" rx="2.966" ry="2.966" transform="translate(218.184 131.129)"/><rect class="c" width="111.981" height="6.674" transform="translate(207.802 150.039)"/><rect class="c" width="111.981" height="6.674" transform="translate(207.802 345.078)"/><rect class="j" width="207.646" height="6.674" transform="translate(207.802 359.91)"/><rect class="j" width="207.646" height="6.674" transform="translate(207.802 369.558)"/><rect class="j" width="207.646" height="6.674" transform="translate(207.802 379.199)"/><rect class="j" width="206.163" height="111.981" transform="translate(207.802 167.837)"/><rect class="j" width="48.204" height="44.496" transform="translate(210.027 290.2)"/><rect class="j" width="48.204" height="44.496" transform="translate(365.761 290.2)"/><rect class="j" width="48.204" height="44.496" transform="translate(286.781 290.2)"/><rect class="j" width="141.889" height="104.439" transform="translate(457.971 200.408)"/><rect class="h" width="111.981" height="6.674" transform="translate(472.921 221.603)"/><rect class="h" width="111.981" height="6.674" transform="translate(472.921 235.448)"/><rect class="h" width="111.981" height="6.674" transform="translate(472.921 249.294)"/><rect class="h" width="111.981" height="6.674" transform="translate(472.921 263.132)"/><rect class="h" width="111.981" height="6.674" transform="translate(472.921 276.978)"/><rect class="c" width="107.286" height="18.785" transform="translate(475.272 316.712)"/><rect class="c" width="71.942" height="12.6" transform="translate(469.54 379.303)"/><ellipse class="a" cx="21.21" cy="2.151" rx="21.21" ry="2.151" transform="translate(170.44 572.858)"/><ellipse class="a" cx="12.711" cy="1.29" rx="12.711" ry="1.29" transform="translate(613.097 542.965)"/><path class="c" d="M297.336,778s-27.661,14.291-13.349,31.147a5.275,5.275,0,0,0,5.236,3.4s-.779-1.416,2.225-2.544a14.511,14.511,0,0,0,2.966-1.587,7.038,7.038,0,0,0,2.677-3.575h0s5.658-7.572,1.276-21.58c0,0,.564-3.96.067-4.6l-3.4,4.531s3.478,2.329,3.871,5.755c0,0-3.619-5.747-4.405-5.095-.156.133-1.669,2.521-1.669,2.521s6.022,4.086,6.474,9.389c0,0-3.4-7.416-7.06-8.491l-2.069,3.745s6.585,4,7.327,10.026c0,0-3.819-7.638-7.72-9.181l-1.543,3.953s6.341,4.034,6.927,9.047c0,0-5.3-8.38-7.216-8.158,0,0-1.194,3.708-1.038,4.857,0,0,4.487,2.966,4.568,5.933,0,0-4.138-5.228-4.776-4.88,0,0-.267,5.25,1.009,7.987a15.882,15.882,0,0,1-1.832-7.987,8.781,8.781,0,0,0-2.655,4.309s-1.194-2.892,2.736-5.547c0,0,.371-4.086.823-4.59,0,0-4.249,2.069-6.051,4.62,0,0,.66-3.8,6.422-5.681l1.483-4s-5.755,2.44-7.527,4.59c0,0,1.276-3.767,7.98-5.569l1.987-3.708s-5.117,1.721-7.609,3.708c0,0,1.936-3.233,8.224-4.724l1.617-2.306s-3.708,1.327-4.746,1.8-1.246.237-1.246.237A13.407,13.407,0,0,1,294,782.731S297.6,778.215,297.336,778Z" transform="translate(-98.278 -238.417)"/><ellipse class="a" cx="16.256" cy="1.646" rx="16.256" ry="1.646" transform="translate(109.296 540.599)"/><path class="c" d="M207.335,745s-21.195,10.946-10.249,23.85a4.071,4.071,0,0,0,4.012,2.6s-.593-1.083,1.683-1.95a11.508,11.508,0,0,0,2.284-1.216,5.422,5.422,0,0,0,2.054-2.744h0s4.331-5.8.971-16.53c0,0,.438-3.04.052-3.53l-2.573,3.537s2.662,1.787,2.966,4.405c0,0-2.774-4.4-3.374-3.9-.119.1-1.276,1.936-1.276,1.936s4.613,3.13,4.961,7.193c0,0-2.6-5.7-5.414-6.5l-1.58,2.863s5.035,3.07,5.606,7.683c0,0-2.929-5.851-5.933-7.03l-1.179,3.026s4.865,3.092,5.31,6.934c0,0-4.064-6.422-5.532-6.222a15.826,15.826,0,0,0-.794,3.708s3.441,2.3,3.5,4.553c0,0-3.174-4-3.663-3.708,0,0-.2,4.019.779,6.118a12.229,12.229,0,0,1-1.409-6.118,6.763,6.763,0,0,0-2.032,3.27s-.912-2.225,2.1-4.249c0,0,.282-3.13.63-3.515,0,0-3.256,1.587-4.635,3.537,0,0,.5-2.907,4.917-4.353l1.12-3.07s-4.412,1.869-5.777,3.523c0,0,.979-2.892,6.118-4.272L202.507,752a24.968,24.968,0,0,0-5.836,2.825s1.483-2.484,6.3-3.619l1.238-1.772s-2.84,1.016-3.634,1.387-.957.178-.957.178a10.294,10.294,0,0,1,5.1-2.314S207.5,745.148,207.335,745Z" transform="translate(-76.073 -229.889)"/><path class="c" d="M883.092,755.41s-16.575,8.6-8.017,18.651a3.181,3.181,0,0,0,3.137,2.032s-.467-.845,1.32-1.528a8.572,8.572,0,0,0,1.787-.949,4.242,4.242,0,0,0,1.6-2.143h0s3.389-4.539.742-12.926c0,0,.334-2.373.037-2.759l-2.01,2.759A5.644,5.644,0,0,1,884.011,762s-2.173-3.448-2.64-3.055c-.1.082-1,1.483-1,1.483s3.612,2.447,3.879,5.621c0,0-2.032-4.45-4.227-5.08l-1.186,2.292s3.938,2.4,4.383,6.007c0,0-2.284-4.576-4.628-5.5l-.92,2.373s3.8,2.41,4.153,5.421c0,0-3.181-5.028-4.323-4.865a12.139,12.139,0,0,0-.623,2.907s2.685,1.795,2.737,3.56c0,0-2.484-3.13-2.863-2.922a13.108,13.108,0,0,0,.6,4.783,9.64,9.64,0,0,1-1.1-4.783,5.28,5.28,0,0,0-1.587,2.558s-.742-1.735,1.639-3.322a12.353,12.353,0,0,1,.489-2.751,11.4,11.4,0,0,0-3.619,2.766s.393-2.277,3.841-3.4l.875-2.4s-3.448,1.483-4.516,2.744c0,0,.742-2.225,4.791-3.337l1.187-2.225a19.808,19.808,0,0,0-4.561,2.225s1.164-1.936,4.932-2.826l.964-1.387s-2.225.8-2.84,1.083-.742.141-.742.141a8.024,8.024,0,0,1,3.99-1.81A19.975,19.975,0,0,0,883.092,755.41Z" transform="translate(-251.447 -232.579)"/><ellipse class="a" cx="30.962" cy="2.588" rx="30.962" ry="2.588" transform="translate(663.199 587.505)"/><path class="c" d="M988.359,734.077a12.935,12.935,0,0,0-1.691,3.189c-.1.274-.2.593-.3.9a3.3,3.3,0,0,0-.593-.208,8.16,8.16,0,0,0-2.64-.222c0-.349.037-.7.052-1.09.1-3.908-.356-9.359-4.086-7.045-3.574,2.225-1.023,5.933,1.283,8.306.2.208.4.4.593.586-2.1,1.483-2.507,4.991-2.855,8.632s-3.441,7.624-5.488,9.885l-.586.63a7.5,7.5,0,0,0-5.933-1.535c-.089-.319-.178-.653-.282-1-1.654-6-5.1-16.389-9.507-18.666.193-.23.386-.475.586-.742,1.869-2.447,3.968-6.074.86-7s-3.382,3.144-3.211,6.2a6.362,6.362,0,0,0,.089,1.09,4.561,4.561,0,0,0-3.256,1.587l-.475-.571c-2.521-2.966-7.149-7.69-8.543-4.123-1.305,3.322,2.759,7.638,5.621,10.138l.185.156c-1.928,7.794,6.459,14.15,10.976,16.931l.586.356c-6.229,7.342-10.071,21.106-10.071,21.106l17.442,3.115s11.561-9.982,10.086-19.356h.119c11.554-2.314,14.187-14.639,12.385-21.959l.2-.082a13.089,13.089,0,0,0,5.354-4.049C998.459,734.722,991.718,729.628,988.359,734.077Z" transform="translate(-269.406 -225.641)"/><path class="f" d="M988.359,734.077a12.935,12.935,0,0,0-1.691,3.189c-.1.274-.2.593-.3.9a3.3,3.3,0,0,0-.593-.208,8.16,8.16,0,0,0-2.64-.222c0-.349.037-.7.052-1.09.1-3.908-.356-9.359-4.086-7.045-3.574,2.225-1.023,5.933,1.283,8.306.2.208.4.4.593.586-2.1,1.483-2.507,4.991-2.855,8.632s-3.441,7.624-5.488,9.885l-.586.63a7.5,7.5,0,0,0-5.933-1.535c-.089-.319-.178-.653-.282-1-1.654-6-5.1-16.389-9.507-18.666.193-.23.386-.475.586-.742,1.869-2.447,3.968-6.074.86-7s-3.382,3.144-3.211,6.2a6.362,6.362,0,0,0,.089,1.09,4.561,4.561,0,0,0-3.256,1.587l-.475-.571c-2.521-2.966-7.149-7.69-8.543-4.123-1.305,3.322,2.759,7.638,5.621,10.138l.185.156c-1.928,7.794,6.459,14.15,10.976,16.931l.586.356c-6.229,7.342-10.071,21.106-10.071,21.106l17.442,3.115s11.561-9.982,10.086-19.356h.119c11.554-2.314,14.187-14.639,12.385-21.959l.2-.082a13.089,13.089,0,0,0,5.354-4.049C998.459,734.722,991.718,729.628,988.359,734.077Z" transform="translate(-269.406 -225.641)"/><path class="c" d="M954,740.13l-2.039,5.933s-1.135-.8-2.566-2.062c-2.855-2.5-6.926-6.815-5.621-10.138,1.394-3.567,6.022,1.142,8.543,4.123C953.324,739.211,954,740.13,954,740.13Z" transform="translate(-269.768 -226.681)"/><path class="c" d="M962.628,735.675a30.1,30.1,0,0,1-1.988,2.343,28.933,28.933,0,0,1-.363-3.144c-.171-3.055.148-7.112,3.211-6.2S964.512,733.228,962.628,735.675Z" transform="translate(-274.089 -225.637)"/><path class="c" d="M996.887,736.782c-.067,1.965-.26,3.537-.26,3.537a25.919,25.919,0,0,1-2.544-2.277c-2.306-2.4-4.857-6.089-1.283-8.306C996.531,727.424,996.991,732.874,996.887,736.782Z" transform="translate(-282.044 -225.803)"/><path class="c" d="M1011.844,740.516a13.118,13.118,0,0,1-5.347,4.049,16.663,16.663,0,0,1-1.795.653l-2.4-3.374a23.911,23.911,0,0,1,.986-3.278,12.933,12.933,0,0,1,1.691-3.189C1008.3,730.949,1015.078,736.044,1011.844,740.516Z" transform="translate(-284.957 -226.963)"/><path class="f" d="M954.362,739.92c1.009,1.187,1.683,2.106,1.683,2.106l-2.039,5.933s-1.135-.8-2.566-2.062a11.726,11.726,0,0,1,2.3-5.243Q954.032,740.272,954.362,739.92Z" transform="translate(-271.815 -228.577)"/><path class="f" d="M962.641,737.881a30.1,30.1,0,0,1-1.988,2.343,28.933,28.933,0,0,1-.363-3.144,4.116,4.116,0,0,1,2.351.8Z" transform="translate(-274.102 -227.843)"/><path class="c" d="M970.359,761.955l-5.073,2.225s-1.112-.534-2.707-1.528c-5.325-3.278-16.048-11.532-8.9-21.261s13.178,7.72,15.573,16.256C969.958,760.2,970.359,761.955,970.359,761.955Z" transform="translate(-271.778 -228.215)"/><path class="f" d="M995.15,740.691a4.153,4.153,0,0,1,2.8-1.261c-.067,1.965-.26,3.537-.26,3.537A25.905,25.905,0,0,1,995.15,740.691Z" transform="translate(-283.11 -228.45)"/><path class="f" d="M1006.537,746.269a16.647,16.647,0,0,1-1.795.653l-2.4-3.374a23.931,23.931,0,0,1,.986-3.278C1004.847,741.175,1005.989,743.429,1006.537,746.269Z" transform="translate(-284.968 -228.667)"/><path class="c" d="M987.445,768.457c-.282.059-.571.111-.86.148-17,2.588-5.606-6.585-5.606-6.585s.742-.7,1.809-1.861c2.047-2.225,5.132-6.222,5.488-9.885.534-5.51,1.149-10.679,7.653-9.166S1003.523,765.231,987.445,768.457Z" transform="translate(-278.482 -228.814)"/><rect class="k" width="32.489" height="8.543" transform="translate(676.14 581.98)"/><rect class="k" width="42.449" height="29.812" transform="translate(670.971 554.215)"/><rect class="f" width="32.489" height="8.543" transform="translate(676.14 581.98)"/><rect class="f" width="42.449" height="29.812" transform="translate(670.971 554.215)"/><rect class="k" width="32.489" height="8.543" transform="translate(678.276 581.98)"/><path class="f" d="M973.164,764.32c.742,2.551,1.1,4.3,1.1,4.3l-5.073,2.225s-1.112-.534-2.707-1.528C968.477,766.8,970.724,764.906,973.164,764.32Z" transform="translate(-275.704 -234.882)"/><path class="f" d="M987.445,775.188c-.282.059-.571.111-.86.148-17,2.588-5.606-6.585-5.606-6.585s.742-.7,1.809-1.861A11.308,11.308,0,0,1,987.445,775.188Z" transform="translate(-278.482 -235.546)"/><path class="c" d="M953.7,791.078s9.522-34.113,22.871-23.59-5.428,26.7-5.428,26.7Z" transform="translate(-272.399 -235.18)"/><ellipse class="f" cx="1.068" cy="1.068" rx="1.068" ry="1.068" transform="translate(685.039 517.461)"/><ellipse class="f" cx="1.068" cy="1.068" rx="1.068" ry="1.068" transform="translate(684.95 522.445)"/><ellipse class="f" cx="1.068" cy="1.068" rx="1.068" ry="1.068" transform="translate(715.919 518.44)"/><ellipse class="f" cx="1.068" cy="1.068" rx="1.068" ry="1.068" transform="translate(691.001 543.981)"/><ellipse class="f" cx="1.068" cy="1.068" rx="1.068" ry="1.068" transform="translate(713.694 526.717)"/><ellipse class="f" cx="1.068" cy="1.068" rx="1.068" ry="1.068" transform="translate(702.659 537.751)"/><ellipse class="f" cx="1.068" cy="1.068" rx="1.068" ry="1.068" transform="translate(688.688 519.597)"/><ellipse class="f" cx="1.068" cy="1.068" rx="1.068" ry="1.068" transform="translate(712.982 521.644)"/><ellipse class="f" cx="1.068" cy="1.068" rx="1.068" ry="1.068" transform="translate(709.334 529.92)"/><ellipse class="f" cx="1.068" cy="1.068" rx="1.068" ry="1.068" transform="translate(698.121 543.18)"/><ellipse class="f" cx="1.068" cy="1.068" rx="1.068" ry="1.068" transform="translate(695.807 537.929)"/><ellipse class="f" cx="1.068" cy="1.068" rx="1.068" ry="1.068" transform="translate(690.29 526.094)"/><rect class="f" width="32.489" height="3.122" transform="translate(678.276 581.98)"/><rect class="k" width="42.449" height="29.812" transform="translate(673.114 554.215)"/><ellipse class="f" cx="1.068" cy="1.068" rx="1.068" ry="1.068" transform="translate(699.545 547.985)"/><ellipse class="f" cx="1.068" cy="1.068" rx="1.068" ry="1.068" transform="translate(693.137 549.32)"/><path class="l" d="M825.021,571.549c-.89-.638-1.261-2.173-1.394-3.708,0-.349-.052-.69-.067-1.016a3.71,3.71,0,0,0,1.031-.934c1.758-2.492-2.44-11.532-2.44-11.532s1.624-4.717,0-8.781-2.366-4.85-2.366-4.85-5.488-11.272-4.672-12.607-1.357-11.865-2.966-13.979a30.815,30.815,0,0,0-2.165-2.625,15.266,15.266,0,0,0-2.032-8.158c-2.306-3.574-4.872-13.5-4.872-13.5s-2.84-9.307-4.872-12.607a14.092,14.092,0,0,0-2.966-3.048c.319-1.483,1.053-3.448-1.053-15.077-.86-4.776.482-7.624,1.587-12.348s.868-10.189-2.521-13.757-8.647-4.234-12.852-6.674c-3.708-2.143-7.008-5.77-11.339-5.7-3.181.052-3.174.549-6.1,1.743-5.065,2.062-10.761,1.439-15.907,3.144-4.628,1.535-10.508,6.578-9.107,11.925a5.858,5.858,0,0,0,1.706,3.174,3.837,3.837,0,0,0,3.6.645.468.468,0,0,1-.052.26,13.7,13.7,0,0,0-.178,2.225,14.651,14.651,0,0,0,14.78,14.417c.044.171.082.349.126.527.111.475.215.949.319,1.439-.386.512-.786,1.023-1.164,1.535a14.89,14.89,0,0,0-2.225,3.953c-4.286.875-11.472,2.292-12.607,4.146-1.483,2.492-7.579,14.832-6.9,20.446.037.311.067.742.1,1.187,0,0-3.752,6.674-4.294,8.773s-1.758,9.96-4.064,11.791-7.038,7.735-6.363,8.9-6.363,2.618-6.363,2.618-4.731,1.832-4.45,3.278c.082.438-.252.853-.742,1.253-5.384-1.772-12.244-2.966-17.561-.267-7.416,3.76,5.592,6.348,13.349,7.483,1.276.193,2.4.341,3.278.445.059.252.3.475.927.69.489.171,1.216.438,2.062.742l.311-.964c2.573.912,9.6,3.752,9.6,3.752s6.1.994,7.854-2.544a32.079,32.079,0,0,1,4.969-5.933l-.245.794-5.132,16.931s-8.12,12.607-7.713,15.329-2.573,9.7-3.248,10.382-7.416,20.572-10.968,21.884-8.261,5.9-6.674,7.342,8.158,6.155,11.124,4.583,8.158,1.313,8.158,1.313,5.681-.934,10.308,1.29c.052.512.111,1.068.171,1.654.482,4.45,1.268,10.6,2.106,12.385,1.357,2.885,2.573,7.994,1.483,9.96s.949,39.445,2.966,45.867c1.587,5.028,3.76,13.119,3.389,18.4-.222,3.211-.356,6.422-.378,9.641v.534c0,.178-.126.282-.185.43v.289a26.632,26.632,0,0,0-1.179,3.419s-3.493,8.781-2.314,11.072a2.053,2.053,0,0,0,.556.645c1.683,1.35,5.933,1.639,7.416,1.7l-.067,2.225h1.995s.052-2.225.185-5a13.644,13.644,0,0,0,.86-4.88,19.955,19.955,0,0,1,1.78-8.432s.044-.23.089-.6h0a14.881,14.881,0,0,0,.126-2.306,8.157,8.157,0,0,0-.742-3.923,8.83,8.83,0,0,1,.148-2.4c.541-1.965-.816-15.722-.816-15.722l2.3-25.3s1.357-19.526.816-24.636a16.236,16.236,0,0,1,.1-4.108,132.6,132.6,0,0,0,1.483-16.775c0-.527,0-1.046,0-1.572,4.924,1.691,13.275.3,13.275.3s1.943-.044,4.524,0c.067.534.141,1.06.215,1.572a29.374,29.374,0,0,0,1.342,6.237c1.35,2.885,2.573,7.994,1.483,9.96s.942,39.445,2.966,45.867c1.594,5.028,3.767,13.111,3.4,18.4-.222,3.2-.356,6.415-.378,9.641v.593c-.067.141-.133.282-.193.43s0,.2,0,.289a27.028,27.028,0,0,0-1.12,3.433s-3.5,8.788-2.314,11.079a1.95,1.95,0,0,0,.556.638c1.683,1.357,5.933,1.639,7.416,1.7l-.067,2.225h1.995s.052-2.225.185-5a13.644,13.644,0,0,0,.86-4.88,20.024,20.024,0,0,1,1.75-8.432,15.386,15.386,0,0,0,.215-2.892,8.113,8.113,0,0,0-.779-3.945,9.115,9.115,0,0,1,.148-2.388c.541-1.965-.808-15.729-.808-15.729l2.3-25.288s1.357-19.526.808-24.636a16.56,16.56,0,0,1,.1-4.108,132.2,132.2,0,0,0,1.483-15.937c0-.534,0-1.06,0-1.594.489-.6,1.483-1.075,4.227-1.995,4.739-1.572,14.216-9.44,18.006-9.96s7.171-3.018,6.089-4.983-7.038-3.278-6.5-6.289-3.656-4.85-5.547-9.826-10.16-8.9-10.293-12.607-7.8-15.04-7.8-15.04-7.705-12.815-9.411-20.646a2.757,2.757,0,0,0-.1-.5h.1a14.174,14.174,0,0,1-.282-1.78,2.761,2.761,0,0,1,.067-.5h-.1v-.334a1.215,1.215,0,0,1,.163-.1l.445-.26-.148.059a14.686,14.686,0,0,0,2.455-2,10.9,10.9,0,0,0,2.825-3.945,20.021,20.021,0,0,0,1.1-5.191l.964-1.483c.934,3.908,2.3,9.515,2.729,10.768a109.258,109.258,0,0,1,4.88,16.285,55.317,55.317,0,0,0,5.933,15.336s6.9,9.04,12.184,9.433,2.306,1.832,3.115,2.1l.23.052.082,1.061.23,3.078s5.414,22.018,11.51,18.874S827.038,572.988,825.021,571.549Z" transform="translate(-204.1 -146.075)"/><path class="m" d="M869.16,640.847c-5.859,3.13-11.065-18.733-11.065-18.733l-.222-3.063-.423-5.792,7.156.912a21.843,21.843,0,0,0,0,3.76c.126,1.483.49,3.033,1.342,3.656C867.855,623.027,875.011,637.725,869.16,640.847Z" transform="translate(-247.527 -195.847)"/><path class="m" d="M754.21,822.468l.5-.378A2.669,2.669,0,0,1,754.21,822.468Z" transform="translate(-220.849 -249.81)"/><path class="m" d="M766.526,660.64v16.871a136.45,136.45,0,0,1-1.483,16.664,16.647,16.647,0,0,0-.1,4.071c.519,5.08-.741,24.473-.741,24.473l-2.225,25.118s1.3,13.66.742,15.573a9.455,9.455,0,0,0-.141,2.38c.074,2.225.46,5.08.586,5.933v.26l-.082.059-10.879,8.3c1.735-1.58,2.18-5.258,2.173-8.669v-1.112q0-4.783.371-9.567c.356-5.243-1.735-13.275-3.263-18.273-1.95-6.37-3.908-43.591-2.863-45.541s-.133-7.03-1.431-9.893c-.764-1.743-1.505-7.839-1.95-12.288-.282-2.7-.452-4.746-.452-4.746Z" transform="translate(-218.415 -208.09)"/><path class="m" d="M805.26,817.96l.534-.4A3.142,3.142,0,0,1,805.26,817.96Z" transform="translate(-234.041 -248.639)"/><path class="m" d="M817.568,656.14v17.7a136.5,136.5,0,0,1-1.431,15.833,16.638,16.638,0,0,0-.1,4.071c.519,5.08-.741,24.473-.741,24.473l-2.225,25.118s1.305,13.66.786,15.573a9.072,9.072,0,0,0-.141,2.373c.074,2.225.467,5.124.586,5.933a.644.644,0,0,0,.037.245l-.082.059h0l-10.894,8.3c1.683-1.617,2.121-5.25,2.114-8.617v-1.12c0-3.189.148-6.378.363-9.567.349-5.243-1.735-13.267-3.263-18.265-1.958-6.37-3.908-43.591-2.863-45.541s-.133-7.03-1.431-9.893a29.714,29.714,0,0,1-1.3-6.192c-.69-4.954-1.179-10.849-1.179-10.849Z" transform="translate(-231.599 -206.927)"/><path class="f" d="M793,461.153l-.111.171a14.283,14.283,0,0,1-9.9,5.933,12.277,12.277,0,0,1-1.743.119c-.044-.178-.082-.356-.126-.527-.853-3.708-1.758-6.674-1.758-6.674s.971-1.4,2.388-3.189c3.849-4.865,10.938-12.555,10.382-2.277a17.628,17.628,0,0,0,.742,6.163A.843.843,0,0,1,793,461.153Z" transform="translate(-227.348 -153.562)"/><path class="m" d="M791.205,448.513a14.305,14.305,0,0,1-12.555,14.2,13.838,13.838,0,0,1-1.765.111h-.1a14.313,14.313,0,1,1,14.424-14.313Z" transform="translate(-223.012 -149.577)"/><path class="m" d="M809.414,494.2l-13.883,11.865s-15.136-21.6-13.349-26.022c.571-1.387.5-3.849.141-6.593-.2-1.483-.489-3.122-.816-4.665-.1-.482-.2-.957-.3-1.424-.044-.178-.082-.356-.126-.527-.853-3.708-1.758-6.674-1.758-6.674s.971-1.4,2.388-3.189c3.849-4.865,10.938-12.555,10.382-2.277a17.63,17.63,0,0,0,.742,6.163,1.008,1.008,0,0,0,.111.349c1.973,6.066,6.778,10.909,10.471,13.912a41.409,41.409,0,0,0,4.783,3.4Z" transform="translate(-227.338 -153.56)"/><path class="f" d="M744.79,670.271l21.736-9.641V677.5a7.48,7.48,0,0,1-1.409-.66c-4.294-2.655-9.641-.593-10.019-.593a11.393,11.393,0,0,1-9.24-.912c-.2-.119-.4-.23-.593-.326C744.946,672.318,744.79,670.271,744.79,670.271Z" transform="translate(-218.415 -208.088)"/><path class="f" d="M817.586,656.14v17.7a7.939,7.939,0,0,0-.742,1.639c-.786,1.824-6.118,2.477-10.8,1.706a66.894,66.894,0,0,0-8.981-.564c-.69-4.954-1.179-10.849-1.179-10.849Z" transform="translate(-231.617 -206.927)"/><path class="n" d="M815.83,615.321c-3.649.519-12.755,8.328-17.309,9.893s-4.034,1.817-4.813,3.641-6.118,2.47-10.805,1.7-13.534-.527-13.534-.527-9.856,1.706-14.179-.971-9.641-.593-10.019-.593a11.393,11.393,0,0,1-9.24-.912c-4.553-2.737-10.672-1.691-10.672-1.691s-4.946-2.863-7.809-1.3-9.107-3.122-10.672-4.553,2.966-5.985,6.378-7.29,9.893-21.083,10.538-21.729,3.515-7.549,3.122-10.278,7.416-15.232,7.416-15.232l4.939-16.8,1.483-5.191.059-3.092c0-1.394.067-3.181.1-5.191.134-8.306.274-20.624,0-26.193-.044-.86-.089-1.557-.148-2.062-.653-5.592,5.191-17.8,6.637-20.3,1.068-1.847,7.979-3.248,12.1-4.116a26.478,26.478,0,0,0,2.907-.7,3.4,3.4,0,0,1,1.142-.089c3.886.156,15.344,2.558,15.344,2.558-1.038,31.362,1.046,25.9,1.046,25.9,3.382-2.6,1.3-25.637,1.3-25.637,1.691.779,3.419-1.179,3.419-1.179l6.6,2.736a65.318,65.318,0,0,1,5.821,3.938,17.548,17.548,0,0,1,4.071,4c1.95,3.256,4.687,12.5,4.687,12.5l-2.343,3.708c-2.047,3.285-5.191,8.335-8.417,13.452l-5.725,9.114c-2.558,4.064-4.642,7.364-5.51,8.706a3.239,3.239,0,0,0-.408,1.046,5.437,5.437,0,0,0-.1.742,11.663,11.663,0,0,0,.3,3.085c1.639,7.772,9.047,20.505,9.047,20.505s7.416,11.317,7.549,14.958,8.068,7.549,9.893,12.5,5.851,6.763,5.332,9.759,5.191,4.294,6.244,6.244S819.471,614.8,815.83,615.321Z" transform="translate(-208.51 -161.859)"/><path class="f" d="M864.592,617.932c-2.01,1.357-5.547,1.305-6.719,1.12l-.423-5.792,7.156.912A21.837,21.837,0,0,0,864.592,617.932Z" transform="translate(-247.527 -195.847)"/><path class="n" d="M829.566,510.09l5.339,3.775s2.469,9.885,4.679,13.4a15.493,15.493,0,0,1,1.95,8.069,28.153,28.153,0,0,1,2.084,2.6c1.565,2.084,3.641,12.533,2.863,13.883s4.494,12.533,4.494,12.533.742.742,2.277,4.813,0,8.721,0,8.721,4.034,8.981,2.343,11.45-7.164,2.225-7.943,1.95,2.084-1.691-2.966-2.084-11.717-9.366-11.717-9.366a55.945,55.945,0,0,1-5.725-15.225,112.071,112.071,0,0,0-4.68-16.137c-.653-1.95-3.515-14.572-3.515-14.572Z" transform="translate(-237.604 -169.187)"/><path class="f" d="M777.954,510.09s-.393,30.19-4.034,36.175Z" transform="translate(-225.942 -169.187)"/><path class="f" d="M805.5,524.48s-3.382,30.19-6.051,31.748S805.5,524.48,805.5,524.48Z" transform="translate(-232.409 -172.906)"/><path class="f" d="M799.006,518.69s-.823,28.47-5.117,31.28S799.006,518.69,799.006,518.69Z" transform="translate(-230.812 -171.409)"/><path class="f" d="M749.079,591.33s-5.384,15.744-4.776,22.248S749.079,591.33,749.079,591.33Z" transform="translate(-218.277 -190.18)"/><path class="f" d="M795.564,566.445c-7.045,1.58-26.1,4.412-42.864-6.014,0-1.394.067-3.181.1-5.191,6.363,3.5,24.235,12.607,33.335,10.056,4.539-1.3,7.416-2.121,9.218-2.655a9.8,9.8,0,0,0,.208,3.8Z" transform="translate(-220.459 -180.854)"/><path class="f" d="M795.564,564.346c-7.045,1.572-26.1,4.405-42.864-6.014,0-1.394.067-3.189.1-5.191,6.363,3.5,24.235,12.607,33.335,10.056,4.539-1.29,7.416-2.121,9.218-2.648A9.811,9.811,0,0,0,795.564,564.346Z" transform="translate(-220.459 -180.311)"/><path class="o" d="M795.564,565.1c-7.045,1.572-26.1,4.405-42.864-6.014,0-1.394.067-3.181.1-5.191,6.363,3.5,24.235,12.607,33.335,10.056,4.539-1.29,7.416-2.121,9.218-2.648A9.811,9.811,0,0,0,795.564,565.1Z" transform="translate(-220.459 -180.505)"/><path class="f" d="M795.564,565.1c-7.045,1.572-26.1,4.405-42.864-6.014,0-1.394.067-3.181.1-5.191,6.363,3.5,24.235,12.607,33.335,10.056,4.539-1.29,7.416-2.121,9.218-2.648A9.811,9.811,0,0,0,795.564,565.1Z" transform="translate(-220.459 -180.505)"/><path class="f" d="M765.8,807.76a1.224,1.224,0,0,1-.044.319l-10.879,8.3c1.735-1.58,2.18-5.258,2.173-8.669V806.6a21.957,21.957,0,0,1,4.019-6.422c1.854-.482,3.018,0,3.708.838v.237a3.411,3.411,0,0,1,.386.578C766.256,803.7,765.945,806.766,765.8,807.76Z" transform="translate(-221.022 -244.097)"/><path class="f" d="M765.609,803.729l-8.209,5.636s.052-.66.126-1.631a22.469,22.469,0,0,1,4.2-6.86c1.854-.475,3.018,0,3.708.838C765.506,802.929,765.609,803.729,765.609,803.729Z" transform="translate(-221.673 -244.279)"/><path class="p" d="M765.184,808.873a20.467,20.467,0,0,0-1.706,8.38,12.933,12.933,0,0,1-1.743,6.756,5.8,5.8,0,0,1-.571.823s-5.7-.044-7.7-1.7a1.949,1.949,0,0,1-.549-.63c-1.142-2.277,2.225-11,2.225-11A24.177,24.177,0,0,1,760.5,801.19C766.9,799.514,765.184,808.873,765.184,808.873Z" transform="translate(-220.454 -244.357)"/><path class="f" d="M762.009,827.655a5.8,5.8,0,0,1-.571.823s-5.7-.044-7.7-1.7c.979-3.248,4.116-13.074,5.577-11.406S761.66,824.518,762.009,827.655Z" transform="translate(-220.728 -248.026)"/><path class="p" d="M763.693,816.01l-.393,14.728h1.913s.3-12.919,1.164-14.728S763.693,816.01,763.693,816.01Z" transform="translate(-223.198 -248.031)"/><path class="f" d="M816.872,803.282l-.044.3h0L806,811.825c1.683-1.617,2.121-5.25,2.114-8.617v-1.12a21.926,21.926,0,0,1,4.012-6.415c1.854-.482,3.026,0,3.745.831v.245a3.08,3.08,0,0,1,.386.571C817.332,799.225,817.013,802.3,816.872,803.282Z" transform="translate(-234.232 -242.934)"/><path class="f" d="M816.659,799.22l-8.209,5.644s.052-.66.133-1.632a22.245,22.245,0,0,1,4.2-6.86c1.854-.475,3.018-.037,3.745.838C816.556,798.427,816.659,799.22,816.659,799.22Z" transform="translate(-234.865 -243.114)"/><path class="p" d="M816.247,804.372a20.349,20.349,0,0,0-1.713,8.38,12.933,12.933,0,0,1-1.743,6.756,6.436,6.436,0,0,1-.571.823s-5.7-.044-7.7-1.7a2.047,2.047,0,0,1-.534-.638c-1.135-2.277,2.225-11,2.225-11a24.178,24.178,0,0,1,5.354-10.316C817.953,795.028,816.247,804.372,816.247,804.372Z" transform="translate(-233.652 -243.194)"/><path class="f" d="M813.059,823.182a6.442,6.442,0,0,1-.571.823s-5.7-.044-7.7-1.7c.979-3.248,4.116-13.082,5.577-11.413S812.71,820.023,813.059,823.182Z" transform="translate(-233.919 -246.868)"/><path class="p" d="M814.75,811.51l-.4,14.721h1.913s.3-12.911,1.164-14.721S814.75,811.51,814.75,811.51Z" transform="translate(-236.39 -246.868)"/><path class="f" d="M818.492,502.056c-.089,3.708-2.114,7.661-5.666,8.766-1.038.319-2.143.393-3.2.608a6.859,6.859,0,0,0-1.483.452c-2.277,1.046-3.411,3.641-3.871,6.1-.163.845-.267,1.7-.371,2.558a18.39,18.39,0,0,1-1.016,4.8,12.147,12.147,0,0,1-5,5.7,32.186,32.186,0,0,1-8.3,3.471,18.651,18.651,0,0,0,2.225-15.5c-.475-1.52-1.483-3.218-3.093-3.174-1.253.037-2.151,1.149-3.085,1.995-4.6,4.138-11.791,2.292-17.613.208,10.382-10.553,13.267-27.691,7.008-41.077a13.552,13.552,0,0,1-1.276-3.315,6.912,6.912,0,0,1,.319-3.426,15.187,15.187,0,0,1,2.106-3.923c.363-.512.742-1.016,1.127-1.528.5-.675.994-1.357,1.439-2.062a11.339,11.339,0,0,0,1.483-3.211c.66-2.521-.267-5.71-2.707-6.571l-.134-.052c-2.7-.845-3.537-1.1-5.377-3.263-1.231-1.439-1.928-3.708-4.034-4.131-1.617-.334-3.426.386-5.124.823a14.32,14.32,0,1,1,25.807,10.508c1.9,6.229,6.815,11.2,10.583,14.261l6.6,2.736a65.315,65.315,0,0,1,5.822,3.938,85.158,85.158,0,0,0,4.2,13.564,47.786,47.786,0,0,1,2.225,6.674,16.427,16.427,0,0,1,.408,4.071Z" transform="translate(-223.082 -149.569)"/><path class="q" d="M776.019,449.353c2.536.794,3.515,4.057,2.84,6.622s-2.492,4.642-4.027,6.8-2.9,4.739-2.432,7.349a13.554,13.554,0,0,0,1.275,3.315,37.523,37.523,0,0,1-7.008,41.077c5.821,2.084,13.022,3.93,17.613-.208.934-.845,1.832-1.958,3.085-1.995,1.594-.052,2.625,1.654,3.092,3.174a18.636,18.636,0,0,1-2.225,15.492c5.362-1.557,11.25-3.968,13.3-9.159.92-2.321.92-4.9,1.379-7.364s1.594-5.05,3.871-6.1c1.483-.667,3.152-.586,4.687-1.06,3.552-1.1,5.577-5.05,5.666-8.766s-1.335-7.282-2.67-10.746c-7.416-19.281-.445-3.834-4.509-27.038-.831-4.739.467-7.572,1.528-12.259s.831-10.115-2.425-13.66-8.313-4.2-12.355-6.608c-3.582-2.136-6.734-5.733-10.9-5.666-3.055.044-3.048.541-5.866,1.728-4.872,2.047-10.338,1.431-15.292,3.122-4.45,1.528-10.1,6.526-8.751,11.866,1.817,7.186,6.8,1.9,10.686,2.707,2.106.445,2.8,2.685,4.034,4.131C772.489,448.249,773.319,448.508,776.019,449.353Z" transform="translate(-221.233 -146.568)"/><path class="m" d="M713.072,573.528s-2.106-.222-4.939-.66c-7.416-1.127-19.956-3.708-12.822-7.416,6.548-3.426,15.573-.519,20.854,1.81a46.182,46.182,0,0,1,4.39,2.225Z" transform="translate(-205.081 -183.087)"/><path class="f" d="M767.359,509.557s-3.382,17.057-5.073,20.817-4.45,13.668-4.45,13.668-4,3.619-7.3,7.134l1.483-5.191.059-3.092c0-1.394.067-3.181.1-5.191.133-8.306.274-20.624,0-26.193.289-.541.475-.875.475-.875l2.633-4.175s4.294-11.45,6.763-14.706S767.359,509.557,767.359,509.557Z" transform="translate(-219.901 -164.36)"/><path class="f" d="M720.689,571.912s-.378,1.483-1.016,3.485c-.808-.326-1.483-.586-1.98-.742-2.225-.742.393-1.691-.26-3.641-.556-1.676-1.587-1.149-2.774-1.617a32.4,32.4,0,0,1,2.514-3.018Z" transform="translate(-210.629 -183.733)"/><path class="n" d="M745.973,506.435l-2.633,4.175s-3.574,6.622-4.131,8.677-1.669,9.915-3.893,11.739-6.771,7.676-6.118,8.847-6.118,2.6-6.118,2.6-4.553,1.824-4.294,3.256-3.775,2.6-2.343,3.641,2.736,0,3.389,1.95-1.958,2.87.26,3.649,9.5,3.827,9.5,3.827,5.851.986,7.542-2.529,11.324-12.229,11.324-12.229,2.729-9.893,4.45-13.668,5.08-20.817,5.08-20.817-2.737-21.083-5.191-17.8S745.973,506.435,745.973,506.435Z" transform="translate(-211.01 -164.36)"/><path class="f" d="M743.577,556.94s-12.881,1.691-5.985,4.553,9.24,0,9.24,0Z" transform="translate(-216.03 -181.293)"/><path class="f" d="M724.79,567.049s7.549-1.557,9.5,0S724.79,567.049,724.79,567.049Z" transform="translate(-213.247 -183.727)"/><path class="f" d="M723.74,572.358s.519-1.305,3.122,0S723.74,572.358,723.74,572.358Z" transform="translate(-212.975 -185.128)"/><path class="f" d="M838.58,589.32s.786,11.865,3.982,12.251S838.58,589.32,838.58,589.32Z" transform="translate(-242.651 -189.661)"/><path class="f" d="M846.453,553.1s.541,3.626-2.855,4.279S846.453,553.1,846.453,553.1Z" transform="translate(-243.686 -180.301)"/><path class="f" d="M795.85,600.69s-.171,36.612,7.29,41.121Z" transform="translate(-231.609 -192.599)"/><path class="f" d="M809.18,602.8s-.133,36.605,7.282,41.121Z" transform="translate(-235.054 -193.144)"/><path class="f" d="M755.72,709.649a27.435,27.435,0,0,1,5.08,0C763.625,709.879,755.72,709.649,755.72,709.649Z" transform="translate(-221.239 -220.724)"/><path class="f" d="M755.72,713.1a27.435,27.435,0,0,1,5.08,0C763.625,713.359,755.72,713.1,755.72,713.1Z" transform="translate(-221.239 -221.616)"/><path class="f" d="M807.77,705.6a27.425,27.425,0,0,1,5.08,0C815.675,705.866,807.77,705.6,807.77,705.6Z" transform="translate(-234.689 -219.677)"/><path class="f" d="M808.94,708.359a27.435,27.435,0,0,1,5.08,0C816.838,708.619,808.94,708.359,808.94,708.359Z" transform="translate(-234.992 -220.391)"/><g class="r" transform="translate(534.619 281.249)"><path d="M769.458,515.067c10.382-10.553,13.267-27.684,7.008-41.077a13.556,13.556,0,0,1-1.276-3.315c-.467-2.61.89-5.191,2.432-7.349s3.359-4.234,4.027-6.8-.3-5.829-2.84-6.615c-2.7-.845-3.537-1.1-5.377-3.27-1.231-1.439-1.928-3.708-4.034-4.123-3.886-.808-8.9,4.45-10.686-2.714-1.023-4.019,1.965-7.861,5.414-10.152-4.309,1.787-9.292,6.533-8.017,11.554,1.817,7.186,6.8,1.906,10.686,2.714,2.106.438,2.8,2.685,4.034,4.123,1.847,2.165,2.677,2.425,5.377,3.27,2.536.786,3.515,4.049,2.84,6.615s-2.492,4.642-4.027,6.8-2.9,4.739-2.432,7.357a13.622,13.622,0,0,0,1.276,3.307,37.518,37.518,0,0,1-7.008,41.077c5.606,2.01,12.481,3.789,17.057.23C779.573,518.226,774.086,516.72,769.458,515.067Z" transform="translate(-755.906 -429.65)"/><path d="M827.793,536.186a5.111,5.111,0,0,0-1.483,1.023c1.172-.289,2.41-.326,3.56-.69a6.674,6.674,0,0,0,2.418-1.35C830.811,535.585,829.195,535.541,827.793,536.186Z" transform="translate(-774.099 -456.917)"/><path d="M807.766,558.494a41.029,41.029,0,0,1-5.636,2.039,18.636,18.636,0,0,0,2.225-15.492c-.467-1.483-1.483-3.226-3.092-3.181a3.952,3.952,0,0,0-2.462,1.409c1.483.052,2.5,1.7,2.966,3.174a18.636,18.636,0,0,1-2.225,15.492,32.571,32.571,0,0,0,8.224-3.441Z" transform="translate(-766.99 -458.646)"/></g></svg>